Coordinates
version=1
nRows=11
nColumns=36
inDegrees=yes

Units are S.I. units (second, meters, Newtons, ...)
If the header above contains a line with 'inDegrees', this indicates whether rotational values are in degrees (yes) or radians (no).

endheader
time	pelvis_tilt	pelvis_list	pelvis_rotation	pelvis_tx	pelvis_ty	pelvis_tz	hip_flexion_r	hip_adduction_r	hip_rotation_r	knee_angle_r	knee_angle_r_beta	ankle_angle_r	subtalar_angle_r	mtp_angle_r	hip_flexion_l	hip_adduction_l	hip_rotation_l	knee_angle_l	knee_angle_l_beta	ankle_angle_l	subtalar_angle_l	mtp_angle_l	lumbar_extension	lumbar_bending	lumbar_rotation	arm_flex_r	arm_add_r	arm_rot_r	elbow_flex_r	pro_sup_r	arm_flex_l	arm_add_l	arm_rot_l	elbow_flex_l	pro_sup_l
      2.96666670	      1.72697389	      7.03596202	      1.28203221	      0.04303279	      0.91295341	      0.28109965	     -1.44679009	     -0.37878557	     17.32011022	     11.11413936	      0.19397833	      5.01061549	    -31.21689020	     -7.49999987	     20.62137598	      2.63118521	     17.77398963	     41.14022402	      0.71803236	      4.93543666	    -33.53564376	     -7.49999987	    -16.22533759	    -11.32021415	      2.35540882	     40.51883877	     11.48310795	     58.84671179	    140.53946548	    109.83456425	     57.17873200	     26.18907304	     76.93297234	    129.01918332	     81.21239222
      2.98333330	      3.00697601	      8.26798349	      1.09838632	      0.04731595	      0.91795261	      0.28621431	     -3.17809769	     -1.50165393	     17.74152979	     11.78908601	      0.20575837	      4.56816087	    -30.31703672	     -7.49999987	     22.04492975	      4.70054989	     15.39873664	     44.60924896	      0.77857827	      2.22965097	    -34.15297889	     -7.49999987	    -17.40073785	    -13.07765311	      2.96610932	     40.14645365	     11.99000622	     58.59088238	    140.64019292	    108.16480691	     57.57494389	     26.44867056	     77.05469645	    129.24908131	     80.89003434
      3.00000000	     -0.16147502	     10.13534231	      0.52290247	      0.04761145	      0.92034480	      0.28907007	     -0.94511677	     -3.18837126	     15.74330016	     11.83040541	      0.20647953	     13.92989586	    -27.00120505	     -7.49999987	     17.14500657	      4.89632214	     17.79961693	     48.16796899	      0.84068965	     15.16664119	    -33.55232840	     -7.49999987	    -15.56671919	    -17.09989277	      3.33085263	     37.41388995	     11.91983347	     60.44291104	    142.44742888	    111.64985435	     56.08782544	     27.45261618	     81.39864832	    128.74874043	     81.31651193
      3.01666670	      2.05264682	     12.34316062	      2.04823459	      0.03862899	      0.92705363	      0.29412114	     -2.08701653	     -4.61115935	     12.99726651	     13.00753823	      0.22702437	     13.94212744	    -26.90887396	     -7.49999987	     20.58857048	      6.77565993	     16.10237130	     48.61605019	      0.84851015	      7.50081934	    -34.31399916	     -7.49999987	    -20.11232807	    -19.08815922	      1.79993779	     38.19706967	     13.33750979	     60.96676209	    141.63659403	    110.51778961	     58.01386266	     27.29266736	     82.02272098	    130.62915948	     80.72804488
      3.03333330	      3.82264766	     12.59511012	      3.23050989	      0.04205061	      0.92943428	      0.29395465	     -3.89881508	     -5.36948595	     10.64390289	     13.11709878	      0.22893656	     10.02552071	    -26.40882565	     -7.49999987	     25.57950283	      9.71070087	     13.40717434	     47.27598733	      0.82512164	     -3.15602411	    -34.33329654	     -7.49999987	    -23.30326382	    -18.83197866	      0.73409729	     38.39684062	     13.73481450	     61.58488939	    142.12408746	    112.12301143	     59.31064130	     27.77900831	     81.66716124	    130.60832254	     79.44861005
      3.05000000	      5.57517080	     12.74619774	      3.42827605	      0.03901953	      0.93084534	      0.29610408	     -5.61308563	     -5.30655291	     11.19250385	     13.59884854	      0.23734468	      4.90862052	    -26.08245697	     -7.49999987	     28.54970916	     10.60764807	     10.12923309	     39.43518384	      0.68827380	    -18.07620488	    -34.46092043	     -7.49999987	    -25.51646054	    -18.65685937	      0.68231391	     39.42731316	     14.29042175	     61.58443612	    142.39941519	    112.23907392	     60.64468481	     27.87879720	     80.52236306	    130.48488405	     78.94800097
      3.06666670	      7.49893791	     11.45056551	      4.13309945	      0.03837505	      0.93002109	      0.29615729	     -7.10512433	     -3.22454463	     12.21522281	     13.98194809	      0.24403103	      2.79264291	    -27.32087615	     -7.49999987	     29.19057151	     10.30101409	      9.29420312	     33.06643893	      0.57711823	    -28.48763339	    -34.47890705	     -7.49999987	    -27.54492310	    -16.64651650	      0.92471476	     40.45577332	     13.39118894	     58.86874608	    142.51179172	    110.16868638	     61.35352973	     27.90021705	     79.38200794	    130.06766975	     77.64805814
      3.08333330	      8.42470152	     10.10227897	      4.99297510	      0.03963969	      0.93003191	      0.29651179	     -7.60253264	     -1.31507937	     12.85760276	     14.45901442	      0.25235741	      2.38419141	    -28.37056070	     -7.49999987	     28.50691023	      9.67618934	     10.05452205	     27.57583115	      0.48128905	    -33.96824951	    -34.48451713	     -7.49999987	    -28.32675800	    -14.59872573	      1.24263693	     40.82144720	     13.01530132	     58.39522688	    142.64122106	    110.61351837	     61.02781843	     27.85792459	     79.77104402	    130.19960983	     76.46265869
      3.10000000	      9.38924302	      9.24836410	      5.10954828	      0.03543867	      0.93246296	      0.29669610	     -7.69376305	     -0.07979813	     13.13298727	     14.97385620	      0.26134309	      3.93841997	    -28.23272662	     -7.49999987	     27.83913696	      9.32835968	     11.55885553	     23.10460991	      0.40325152	    -35.77342477	    -34.44255349	     -7.49999987	    -29.13978484	    -13.10102133	      1.51077971	     41.43022927	     13.12131664	     58.49631145	    142.54635200	    108.19237093	     61.42046759	     27.38548879	     78.94560769	    130.00915373	     76.56253953
      3.11666670	      9.75643834	      8.33966558	      5.06776755	      0.03278808	      0.92918885	      0.29803448	     -6.94362351	      1.02893901	     13.16826772	     15.99591575	      0.27918140	      5.87844451	    -28.08344729	     -7.49999987	     27.58838741	      8.70889682	     13.50403050	     19.30296589	      0.33690031	    -35.68483689	    -34.39569678	     -7.49999987	    -29.65778007	    -11.61604640	      1.74021313	     41.72868614	     13.53684184	     59.67493598	    142.55895250	    108.77789212	     61.47749569	     27.00519390	     78.54685316	    130.31305675	     76.43462512
      3.13333330	     10.07348532	      8.09680831	      5.38814907	      0.03455843	      0.92575752	      0.29979466	     -6.50083862	      1.52921655	     12.60345085	     17.43695543	      0.30433228	      5.55529597	    -28.10847134	     -7.49999987	     26.96756748	      8.36398491	     13.85755644	     15.79274680	      0.27563543	    -36.83267371	    -34.36854241	     -7.49999987	    -30.01026766	    -11.26918739	      1.75888053	     41.97661326	     13.60204397	     59.90754367	    142.55805686	    107.92280795	     61.15763314	     27.15758777	     78.68062911	    130.35824388	     76.49031633
